<?xml version="1.0" encoding="UTF-8"?>
<svg width="120px" height="33px" viewBox="0 0 120 33" version="1.1" xmlns="http://www.w3.org/2000/svg" xmlns:xlink="http://www.w3.org/1999/xlink">
    <title>logo蓝色</title>
    <defs>
        <linearGradient x1="0%" y1="47.8542802%" x2="99.8333698%" y2="51.9014361%" id="linearGradient-1">
            <stop stop-color="#206EF7" offset="0%"></stop>
            <stop stop-color="#00A4FF" offset="100%"></stop>
        </linearGradient>
    </defs>
    <g id="2.0" stroke="none" stroke-width="1" fill="none" fill-rule="evenodd">
        <g id="logo-" transform="translate(-45.000000, -19.000000)" fill="url(#linearGradient-1)">
            <path d="M74.6965932,19 L74.6965932,31.375 L78,31.375 L78,39.625 L74.0453419,39.625 L73.7482656,40.5416667 L73.1922696,41.6547619 L72.9285803,42.1129588 L78,42.1129588 L78,48.7261905 L61.4836472,48.7261905 L60.2081269,48.6605779 L58.9653122,48.4642857 L57.7223612,48.1696429 L56.5123885,47.7440476 L55.3675545,47.1875 L54.8769698,46.9130456 L54.8769698,52 L48.3032706,52 L48.3032706,39.625 L46.6351462,39.625 L46.6351462,34.6815476 L45,34.6815476 L45,31.375 L48.9328543,31.375 L49.2517344,30.4910714 L49.7748885,29.3452381 L50.0325818,28.9196429 L45,28.9196429 L45,22.306684 L61.4836472,22.306684 L62.7591675,22.3718874 L64.0346878,22.5357143 L65.2773662,22.8629588 L66.4876115,23.2886905 L67.6321729,23.8125 L68.0901883,24.0820437 L68.0901883,19 L74.6965932,19 Z M156.591173,43.72 C157.283221,43.72 157.870148,43.9039623 158.343194,44.2718868 C158.81624,44.6398113 159.096563,45.1391375 159.184164,45.7611051 L159.184164,45.7611051 L158.492116,45.7611051 C158.404515,45.3055795 158.176752,44.9551752 157.826348,44.7098922 C157.484704,44.4733693 157.072978,44.3594879 156.582412,44.3594879 C155.855323,44.3594879 155.294677,44.613531 154.900472,45.1216173 C154.532547,45.5946631 154.348585,46.2166307 154.348585,46.9962803 C154.348585,47.7759299 154.523787,48.3978976 154.891712,48.8534232 C155.277156,49.3352291 155.829043,49.5805121 156.564892,49.5805121 C157.064218,49.5805121 157.484704,49.4491105 157.835108,49.1863073 C158.203032,48.9059838 158.457075,48.4942588 158.579717,47.9511321 L158.579717,47.9511321 L159.271765,47.9511321 C159.131604,48.678221 158.80748,49.247628 158.290633,49.650593 C157.808827,50.0272776 157.23066,50.22 156.564892,50.22 C155.59252,50.22 154.847911,49.895876 154.331065,49.2563881 C153.858019,48.678221 153.630256,47.9248518 153.630256,46.9962803 C153.630256,46.0677089 153.866779,45.3055795 154.348585,44.7098922 C154.874191,44.044124 155.627561,43.72 156.591173,43.72 Z M131.440903,43.8426415 L131.440903,47.7058491 C131.440903,48.3190566 131.572305,48.7833423 131.852628,49.0987062 C132.141712,49.4228302 132.597237,49.5892722 133.219205,49.5892722 C133.832412,49.5892722 134.287938,49.4228302 134.585782,49.0987062 C134.857345,48.7833423 134.997507,48.3190566 134.997507,47.7058491 L134.997507,47.7058491 L134.997507,43.8426415 L135.715836,43.8426415 L135.715836,47.6970889 C135.715836,48.511779 135.505593,49.1337466 135.093868,49.5629919 C134.664623,50.0009973 134.042655,50.22 133.219205,50.22 C132.395755,50.22 131.773787,50.0009973 131.353302,49.571752 C130.932817,49.1337466 130.722574,48.511779 130.722574,47.6970889 L130.722574,47.6970889 L130.722574,43.8426415 L131.440903,43.8426415 Z M126.736725,43.72 C127.665296,43.72 128.409906,44.0266038 128.953032,44.6573315 C129.461119,45.2530189 129.723922,46.0239084 129.723922,46.9787601 C129.723922,47.9248518 129.461119,48.6869811 128.953032,49.2826685 C128.409906,49.9046361 127.665296,50.22 126.727965,50.22 C125.790633,50.22 125.054784,49.9046361 124.511658,49.2826685 C123.994811,48.6869811 123.740768,47.9160916 123.740768,46.9787601 C123.740768,46.0326685 123.994811,45.261779 124.511658,44.6660916 C125.054784,44.0353639 125.790633,43.72 126.736725,43.72 Z M114.201011,43.72 C114.98066,43.72 115.602628,43.9039623 116.066914,44.289407 C116.504919,44.6485714 116.776482,45.1654178 116.890364,45.8487062 L116.890364,45.8487062 L116.172035,45.8487062 C116.075674,45.3756604 115.865431,45.016496 115.541307,44.7624528 C115.199663,44.4908895 114.752898,44.3594879 114.201011,44.3594879 C113.517722,44.3594879 112.983356,44.5960108 112.580391,45.0778167 C112.177426,45.5508625 111.984704,46.1903504 111.984704,46.9962803 C111.984704,47.78469 112.177426,48.4066577 112.562871,48.8621833 C112.974596,49.3439892 113.587803,49.5892722 114.402493,49.5892722 C114.744137,49.5892722 115.068261,49.5367116 115.383625,49.4491105 C115.690229,49.3615094 115.953032,49.2388679 116.172035,49.0987062 L116.172035,49.0987062 L116.172035,47.5043666 L114.209771,47.5043666 L114.209771,46.8823989 L116.881604,46.8823989 L116.881604,49.4403504 C116.58376,49.6856334 116.215836,49.8695957 115.78659,50.0097574 C115.331065,50.1499191 114.849259,50.22 114.332412,50.22 C113.34252,50.22 112.571631,49.9046361 112.028504,49.2739084 C111.520418,48.6869811 111.266375,47.9248518 111.266375,46.9962803 C111.266375,46.0677089 111.511658,45.3055795 112.019744,44.7011321 C112.554111,44.044124 113.281199,43.72 114.201011,43.72 Z M163.71314,49.0549057 C163.853302,49.0549057 163.984704,49.1074663 164.089825,49.2125876 C164.194946,49.3177089 164.247507,49.4403504 164.247507,49.5980323 C164.247507,49.7469542 164.194946,49.8695957 164.089825,49.974717 C163.984704,50.0798383 163.853302,50.1323989 163.71314,50.1323989 C163.555458,50.1323989 163.432817,50.0798383 163.336456,49.974717 C163.231334,49.8695957 163.178774,49.7469542 163.178774,49.5980323 C163.178774,49.4403504 163.231334,49.3177089 163.336456,49.2125876 C163.432817,49.1074663 163.555458,49.0549057 163.71314,49.0549057 Z M148.347911,43.8426415 L151.886995,48.9322642 L151.913275,48.9322642 L151.913275,43.8426415 L152.631604,43.8426415 L152.631604,50.0973585 L151.895755,50.0973585 L148.339151,44.9551752 L148.312871,44.9551752 L148.312871,50.0973585 L147.594542,50.0973585 L147.594542,43.8426415 L148.347911,43.8426415 Z M146.280526,43.8426415 L146.280526,50.0973585 L145.570957,50.0973585 L145.570957,43.8426415 L146.280526,43.8426415 Z M139.535243,43.8426415 C140.9719,43.8426415 141.690229,44.4558491 141.690229,45.6822642 C141.690229,46.9174394 140.96314,47.539407 139.526482,47.539407 L139.526482,47.539407 L137.69562,47.539407 L137.69562,50.0973585 L136.977291,50.0973585 L136.977291,43.8426415 Z M120.779852,43.8426415 C121.401819,43.8426415 121.892385,43.9828032 122.25155,44.2718868 C122.619474,44.5697305 122.812197,45.0077358 122.812197,45.585903 C122.812197,45.9363073 122.715836,46.2429111 122.523113,46.5144744 C122.312871,46.7947978 122.032547,46.97 121.673383,47.0576011 L121.673383,47.0576011 L121.673383,47.0751213 C122.26907,47.2065229 122.601954,47.5832075 122.672035,48.2139353 L122.672035,48.2139353 L122.768396,49.1775472 C122.803437,49.5629919 122.917318,49.8695957 123.10128,50.0973585 L123.10128,50.0973585 L122.321631,50.0973585 C122.181469,49.8871159 122.093868,49.6155526 122.067588,49.2651482 L122.067588,49.2651482 L121.988747,48.432938 C121.953706,48.0650135 121.822305,47.7934501 121.594542,47.6357682 C121.384299,47.4780863 121.086456,47.4080054 120.692251,47.4080054 L120.692251,47.4080054 L118.800067,47.4080054 L118.800067,50.0973585 L118.081739,50.0973585 L118.081739,43.8426415 Z M107.464488,43.8426415 L107.464488,44.4646092 L103.750202,44.4646092 L103.750202,46.5582749 L107.254245,46.5582749 L107.254245,47.1802426 L103.750202,47.1802426 L103.750202,49.4753908 L107.61341,49.4753908 L107.61341,50.0973585 L103.031873,50.0973585 L103.031873,43.8426415 L107.464488,43.8426415 Z M96.1989892,43.8426415 L98.5291779,49.1775472 L98.5554582,49.1775472 L100.876887,43.8426415 L101.770418,43.8426415 L101.770418,50.0973585 L101.052089,50.0973585 L101.052089,45.1216173 L101.025809,45.1216173 L98.862062,50.0973585 L98.213814,50.0973585 L96.0500674,45.1216173 L96.0237871,45.1216173 L96.0237871,50.0973585 L95.3054582,50.0973585 L95.3054582,43.8426415 L96.1989892,43.8426415 Z M93.991442,43.8426415 L93.991442,50.0973585 L93.2818733,50.0973585 L93.2818733,43.8426415 L93.991442,43.8426415 Z M92.4496631,43.8426415 L92.4496631,44.4646092 L90.2421159,44.4646092 L90.2421159,50.0973585 L89.5325472,50.0973585 L89.5325472,44.4646092 L87.325,44.4646092 L87.325,43.8426415 L92.4496631,43.8426415 Z M126.736725,44.3594879 C126.018396,44.3594879 125.448989,44.6047709 125.037264,45.104097 C124.651819,45.5771429 124.459097,46.1991105 124.459097,46.9787601 C124.459097,47.7496496 124.651819,48.3716173 125.037264,48.8446631 C125.440229,49.3352291 126.009636,49.5805121 126.727965,49.5805121 C127.446294,49.5805121 128.015701,49.3352291 128.418666,48.8621833 C128.804111,48.3891375 129.005593,47.7671698 129.005593,46.9787601 C129.005593,46.1815903 128.804111,45.5508625 128.418666,45.0778167 C128.015701,44.5960108 127.455054,44.3594879 126.736725,44.3594879 Z M139.491442,44.4646092 L137.69562,44.4646092 L137.69562,46.9174394 L139.491442,46.9174394 C139.999528,46.9174394 140.367453,46.8123181 140.612736,46.6108356 C140.849259,46.4093531 140.9719,46.1027493 140.9719,45.6822642 C140.9719,45.261779 140.849259,44.9551752 140.603976,44.7712129 C140.358693,44.5609704 139.990768,44.4646092 139.491442,44.4646092 L139.491442,44.4646092 Z M120.692251,44.4646092 L118.800067,44.4646092 L118.800067,46.7860377 L120.692251,46.7860377 C121.147776,46.7860377 121.506941,46.6721563 121.752224,46.4619137 C121.971226,46.2604313 122.085108,45.9801078 122.085108,45.6121833 C122.085108,45.2267385 121.971226,44.937655 121.760984,44.7536927 C121.533221,44.5609704 121.174057,44.4646092 120.692251,44.4646092 L120.692251,44.4646092 Z M66,40 L56,40 L56.0690995,40.08 L56.6715728,40.6133333 L57.3374643,41.0665556 L58.0669062,41.44 L58.8595022,41.7333333 L59.7156485,41.9201111 L60.5717947,42 L61.4280731,42 L62.2840873,41.9201111 L63.1086566,41.7333333 L63.9012525,41.44 L64.6622714,41.0665556 L65.328163,40.6133333 L65.9307684,40.08 L66,40 Z M77,32 L71,32 L71,39 L77,39 L77,37.2672538 L74.4235876,37.2672538 L74.4235876,36.3663009 L77,36.3663009 L77,34.6336991 L74.4235876,34.6336991 L74.4235876,33.7673982 L77,33.7673982 L77,32 Z M61.4280731,29 L60.5717947,29 L59.7156485,29.1351351 L58.8595022,29.3716216 L58.0669062,29.7432432 L57.3374643,30.2162162 L56.6715728,30.7905405 L56.0690995,31.4324324 L56,31.5337838 L63.0451062,31.5337838 L63.261,32 L60,32 L60,39 L63.3333792,39 L63.3333792,35.5 L64.9835669,39 L66.6667583,35.5 L66.6667583,39 L70,39 L70,32 L66.6997621,32 L64.9835669,35.6039561 L64.203,33.965 L65.3600042,31.5337838 L66,31.5337838 L65.9307684,31.4324324 L65.328163,30.7905405 L64.6622714,30.2162162 L63.9012525,29.7432432 L63.1086566,29.3716216 L62.2840873,29.1351351 L61.4280731,29 Z M58,32 L54,32 L54,39 L58,39 L58,32 Z M53,32 L46,32 L46,33.7673982 L47.732709,33.7673982 L47.732709,39 L51.2327812,39 L51.2327812,33.7673982 L53,33.7673982 L53,32 Z M163.293234,22.2936596 L163.293234,38.516 L160.960255,38.516 L160.960255,37.8830213 L150.127277,37.8830213 L150.127277,38.516 L147.902809,38.516 L147.902809,22.2936596 L163.293234,22.2936596 Z M117.858128,21.8777021 C117.894298,23.6500426 117.966638,25.3500426 118.093234,26.8872766 L118.093234,26.8872766 L123.247489,26.2181277 L123.554936,28.2436596 L118.310255,28.9670638 C118.816638,32.9819574 119.775149,35.6585532 121.221957,35.8394043 C121.637915,35.8755745 121.854936,34.9713191 121.999617,32.9638723 C122.397489,33.4340851 123.356,33.9766383 123.753872,34.1936596 C123.301745,37.6840851 122.325149,38.516 121.312383,38.4617447 C118.256,38.172383 116.827277,34.772383 116.176213,29.2564255 L116.176213,29.2564255 L112.613447,29.7447234 L112.306,27.6649362 L115.959191,27.1766383 C115.832596,25.5489787 115.724085,23.7766383 115.66983,21.8777021 L115.66983,21.8777021 Z M136.425149,31.8606809 L136.425149,32.7830213 L143.514511,32.7830213 L143.514511,34.5011064 L138.396426,34.5011064 C140.006,35.4053617 142.067702,36.1468511 143.966638,36.5628085 C143.514511,36.978766 142.899617,37.7745106 142.62834,38.2808936 C140.512383,37.6840851 138.215574,36.5989787 136.425149,35.3149362 L136.425149,35.3149362 L136.425149,38.4617447 L134.291106,38.4617447 L134.291106,35.4053617 C132.500681,36.6894043 130.167702,37.7745106 128.051745,38.3713191 C127.726213,37.8468511 127.111319,37.0511064 126.659191,36.5989787 C128.630468,36.1830213 130.764511,35.4053617 132.446426,34.5011064 L132.446426,34.5011064 L127.256,34.5011064 L127.256,32.7830213 L134.291106,32.7830213 L134.291106,31.8606809 L136.425149,31.8606809 Z M111.293234,21.7511064 L113.354936,22.4202553 C112.884723,23.5234468 112.324085,24.6447234 111.673021,25.7479149 L111.673021,25.7479149 L111.673021,38.4617447 L109.430468,38.4617447 L109.430468,28.9670638 C108.815574,29.7266383 108.200681,30.4138723 107.549617,30.9925957 C107.350681,30.4862128 106.735787,29.328766 106.356,28.8042979 C108.309191,27.1404681 110.208128,24.4819574 111.293234,21.7511064 L111.293234,21.7511064 Z M101.587915,21.7330213 L101.587915,24.9340851 L103.432596,24.9340851 L103.432596,27.0681277 L101.587915,27.0681277 L101.587915,35.6404681 C101.587915,36.9425957 101.316638,37.503234 100.502809,37.8468511 C99.7070638,38.1904681 98.4411064,38.2447234 96.6325957,38.2266383 C96.5421702,37.6298298 96.1985532,36.6713191 95.8730213,36.0564255 C96.8224894,36.097117 97.8126489,36.1072899 98.4086097,36.1098331 L98.4086097,36.1098331 L98.8570638,36.1106809 C99.2549362,36.1106809 99.399617,35.9840851 99.399617,35.6042979 L99.399617,35.6042979 L99.399617,27.0681277 L94.0464255,27.0681277 L94.0464255,24.9340851 L99.399617,24.9340851 L99.399617,21.7330213 L101.587915,21.7330213 Z M93.3591915,23.0170638 L93.3591915,35.1702553 L89.1815319,35.1702553 L89.1815319,36.6170638 L87.156,36.6170638 L87.156,23.0170638 L93.3591915,23.0170638 Z M160.960255,24.2649362 L150.127277,24.2649362 L150.127277,35.9479149 L160.960255,35.9479149 L160.960255,24.2649362 Z M158.138979,24.8074894 L158.138979,26.7606809 L160.309191,26.7606809 L160.309191,28.659617 L158.138979,28.659617 L158.138979,33.253234 C158.138979,34.2298298 157.994298,34.7181277 157.361319,35.0436596 C156.764511,35.3691915 155.950681,35.4053617 154.847489,35.4053617 C154.757064,34.8447234 154.431532,34.0128085 154.160255,33.4883404 C154.829404,33.5245106 155.534723,33.5245106 155.76983,33.5064255 C156.004936,33.5064255 156.077277,33.4521702 156.077277,33.2351489 L156.077277,33.2351489 L156.077277,30.7936596 C154.738979,32.1319574 153.165574,33.253234 151.773021,33.9947234 C151.501745,33.5968511 150.904936,32.9277021 150.434723,32.5479149 C152.062383,31.6798298 153.870894,30.3053617 155.245362,28.659617 L155.245362,28.659617 L150.904936,28.659617 L150.904936,26.7606809 L156.077277,26.7606809 L156.077277,24.8074894 L158.138979,24.8074894 Z M95.999617,28.2436596 C96.8857872,29.4915319 98.1155745,31.1734468 98.6942979,32.222383 L98.6942979,32.222383 L96.7953617,33.3255745 C96.2528085,32.2766383 95.0953617,30.5042979 94.2272766,29.1840851 L94.2272766,29.1840851 Z M91.3517447,29.9617447 L89.1815319,29.9617447 L89.1815319,33.2351489 L91.3517447,33.2351489 L91.3517447,29.9617447 Z M136.67834,21.516 C137.003872,22.0766383 137.347489,22.7819574 137.546426,23.3606809 L137.546426,23.3606809 L142.62834,23.3606809 L142.62834,25.0064255 L137.112383,25.0064255 L137.112383,25.766 L141.814511,25.766 L141.814511,27.1585532 L137.112383,27.1585532 L137.112383,27.8819574 L141.832596,27.8819574 L141.832596,29.2745106 L137.112383,29.2745106 L137.112383,30.0702553 L143.062383,30.0702553 L143.062383,31.6979149 L131.397489,31.6979149 L131.397489,32.1862128 L129.263447,32.1862128 L129.263447,27.0138723 C128.937915,27.303234 128.612383,27.5745106 128.286851,27.8457872 C127.943234,27.3936596 127.256,26.7064255 126.767702,26.4351489 C128.775149,25.0064255 130.240043,23.1436596 131.053872,21.5883404 L131.053872,21.5883404 L133.24217,22.0042979 C132.970894,22.4564255 132.681532,22.9085532 132.374085,23.3606809 L132.374085,23.3606809 L135.303872,23.3606809 C135.141106,22.9085532 134.94217,22.4564255 134.743234,22.0585532 L134.743234,22.0585532 Z M135.050681,29.2745106 L131.397489,29.2745106 L131.397489,30.0702553 L135.050681,30.0702553 L135.050681,29.2745106 Z M91.3517447,24.9340851 L89.1815319,24.9340851 L89.1815319,28.0808936 L91.3517447,28.0808936 L91.3517447,24.9340851 Z M135.050681,27.1585532 L131.397489,27.1585532 L131.397489,27.8819574 L135.050681,27.8819574 L135.050681,27.1585532 Z M135.050681,25.0064255 L131.397489,25.0064255 L131.397489,25.766 L135.050681,25.766 L135.050681,25.0064255 Z M120.679404,21.7330213 C121.637915,22.6011064 122.759191,23.7947234 123.28366,24.6447234 L123.28366,24.6447234 L121.547489,25.766 C121.095362,24.916 120.010255,23.6500426 119.06983,22.7277021 L119.06983,22.7277021 Z" id="logo蓝色"></path>
        </g>
    </g>
</svg>