<svg id="图层_1" xmlns="http://www.w3.org/2000/svg" xmlns:xlink="http://www.w3.org/1999/xlink" viewBox="0 0 33 33"><defs><style>.cls-1{fill-rule:evenodd;fill:url(#未命名的渐变);}</style><linearGradient id="未命名的渐变" x1="-622.83" y1="414.45" x2="-622.53" y2="414.44" gradientTransform="matrix(119.25, 0, 0, -33, 74269.07, 13693.08)" gradientUnits="userSpaceOnUse"><stop offset="0" stop-color="#206ef7"/><stop offset="1" stop-color="#00a4ff"/></linearGradient></defs><title>logo2</title><path class="cls-1" d="M29.7,0V12.38H33v8.24H29.05l-.3.92-.56,1.11-.26.46H33v6.62H16.48l-1.27-.07L14,29.46l-1.25-.29-1.21-.43-1.14-.55-.49-.28V33H3.3V20.62H1.64V15.68H0v-3.3H3.93l.32-.89.52-1.14L5,9.92H0V3.31H16.48l1.28.06L19,3.54l1.25.32,1.21.43,1.14.52.46.27V0ZM21,21H11l.07.08.6.53.67.46.73.37.79.29.86.19.85.08h.86l.85-.08.83-.19.79-.29.76-.37.67-.46.6-.53Zm11-8H26v7h6V18.27H29.42v-.9H32V15.63H29.42v-.86H32ZM16.43,10h-.86l-.85.14-.86.23-.79.37-.73.48-.67.57-.6.64-.07.1h7.05l.21.47H15v7h3.33V16.5L20,20l1.69-3.5V20H25V13H21.7L20,16.6,19.2,15l1.16-2.44H21l-.07-.1-.6-.64-.67-.57-.76-.48-.79-.37-.83-.23ZM13,13H9v7h4ZM8,13H1v1.77H2.73V20h3.5V14.77H8Z"/></svg>
