<svg viewBox="0 0 60 60" x="0" y="0" width="100" height="100" class="image-svg-svg bn" style="overflow: visible;"><g hollow-target="iconBnFill" mask="url(#017cbe3c-e6e8-4787-88a9-453c36bf1298)"><g><svg viewBox="0 0 100 100" xmlns="http://www.w3.org/2000/svg" style="overflow: visible;" width="60" height="60" x="0" y="0" filtersec="colorsf4730103104" filter="url(#gqt1H04Aqequ9uClz__bH)"><g transform="scale(1, 1) skewX(0)"><rect x="537" y="3121" width="100" height="100" rx="30" transform="translate(-537 -3121)" fill="#333" fill-rule="evenodd"></rect></g><defs><filter id="gqt1H04Aqequ9uClz__bH"><feColorMatrix type="matrix" values="0 0 0 0 0.16015625  0 0 0 0 0.3984375  0 0 0 0 0.79296875  0 0 0 1 0"></feColorMatrix></filter></defs></svg></g> <g filter="url(#colors6656206617)"><svg xmlns="http://www.w3.org/2000/svg" xmlns:xlink="http://www.w3.org/1999/xlink" viewBox="0 0 112.30396875000002 66.816" width="45" height="45" x="7.5" y="7.5" class="image-svg-letter"><path transform="translate(-4.04803125 61.056000000000004)" d="M51.12-49.18L41.54-49.18L41.54-43.70Q41.54-42.62 40.79-41.90Q40.03-41.18 39.02-41.18L39.02-41.18Q37.94-41.18 37.19-41.90Q36.43-42.62 36.43-43.70L36.43-43.70L36.43-49.18L22.61-49.18L22.61-43.70Q22.61-42.62 21.85-41.90Q21.10-41.18 20.09-41.18L20.09-41.18Q19.01-41.18 18.25-41.90Q17.50-42.62 17.50-43.70L17.50-43.70L17.50-49.18L8.06-49.18Q7.06-49.18 6.30-49.97Q5.54-50.76 5.54-51.77L5.54-51.77Q5.54-52.85 6.30-53.60Q7.06-54.36 8.06-54.36L8.06-54.36L17.50-54.36L17.50-58.54Q17.50-59.54 18.25-60.30Q19.01-61.06 20.09-61.06L20.09-61.06Q21.10-61.06 21.85-60.30Q22.61-59.54 22.61-58.54L22.61-58.54L22.61-54.36L36.43-54.36L36.43-58.54Q36.43-59.54 37.19-60.30Q37.94-61.06 39.02-61.06L39.02-61.06Q40.03-61.06 40.79-60.30Q41.54-59.54 41.54-58.54L41.54-58.54L41.54-54.36L51.12-54.36Q52.20-54.36 52.96-53.60Q53.71-52.85 53.71-51.77L53.71-51.77Q53.71-50.76 52.96-49.97Q52.20-49.18 51.12-49.18L51.12-49.18ZM19.15-4.25L19.15-4.25L19.15-34.99Q19.15-36.07 19.94-36.83Q20.74-37.58 21.74-37.58L21.74-37.58Q22.75-37.58 23.54-36.83Q24.34-36.07 24.34-34.99L24.34-34.99L24.34-4.25Q24.34-2.45 25.56-1.08L25.56-1.08Q26.78 0.22 28.58 0.22L28.58 0.22L35.35 0.22Q37.01 0.22 38.16-1.08L38.16-1.08Q39.53-2.38 39.53-4.39L39.53-4.39L39.82-10.01Q39.82-11.09 40.57-11.77Q41.33-12.46 42.41-12.46L42.41-12.46Q43.49-12.38 44.21-11.63Q44.93-10.87 44.93-9.79L44.93-9.79L44.64-4.10Q44.42-0.14 41.83 2.52L41.83 2.52Q39.17 5.33 35.35 5.33L35.35 5.33L28.58 5.33Q24.62 5.33 21.89 2.52L21.89 2.52Q19.15-0.36 19.15-4.25ZM9.00-6.41L9.00-6.41Q8.57-5.40 7.63-4.97Q6.70-4.54 5.62-4.90L5.62-4.90Q4.61-5.33 4.25-6.26Q3.89-7.20 4.18-8.21L4.18-8.21Q6.41-14.04 7.63-19.51L7.63-19.51Q8.93-25.13 9.43-30.89L9.43-30.89Q9.50-31.97 10.30-32.58Q11.09-33.19 12.17-33.12L12.17-33.12Q13.25-32.98 13.90-32.22Q14.54-31.46 14.47-30.38L14.47-30.38Q13.97-24.34 12.60-18.43L12.60-18.43Q11.38-12.46 9.00-6.41ZM49.10-31.25L49.10-31.25L54.50-7.99Q54.72-6.91 54.18-6.05Q53.64-5.18 52.56-4.97L52.56-4.97Q51.48-4.75 50.62-5.26Q49.75-5.76 49.46-6.84L49.46-6.84L44.14-30.02Q43.92-31.10 44.46-31.97Q45.00-32.83 46.08-33.12L46.08-33.12Q47.16-33.34 48.02-32.80Q48.89-32.26 49.10-31.25ZM31.90-21.89L31.90-21.89L31.90-37.37Q31.90-38.45 32.65-39.20Q33.41-39.96 34.49-39.96L34.49-39.96Q35.50-39.96 36.25-39.20Q37.01-38.45 37.01-37.37L37.01-37.37L37.01-21.89Q37.01-20.81 36.25-20.05Q35.50-19.30 34.49-19.30L34.49-19.30Q33.41-19.30 32.65-20.05Q31.90-20.81 31.90-21.89ZM116.35-36.58L116.35-36.58L116.35-25.42Q116.35-24.34 115.60-23.62Q114.84-22.90 113.83-22.90L113.83-22.90Q112.75-22.90 112.00-23.62Q111.24-24.34 111.24-25.42L111.24-25.42L111.24-34.06L94.90-34.06L94.90 3.24Q94.90 4.32 94.14 5.04Q93.38 5.76 92.38 5.76L92.38 5.76Q91.30 5.76 90.50 5.04Q89.71 4.32 89.71 3.24L89.71 3.24L89.71-34.06L69.77-34.06Q68.69-34.06 67.97-34.81Q67.25-35.57 67.25-36.58L67.25-36.58Q67.25-37.66 67.97-38.41Q68.69-39.17 69.77-39.17L69.77-39.17L87.05-39.17L80.64-46.94Q79.99-47.81 80.10-48.82Q80.21-49.82 81.00-50.54L81.00-50.54Q81.86-51.26 82.84-51.12Q83.81-50.98 84.53-50.18L84.53-50.18L92.30-40.82L101.23-53.86L77.18-53.86Q76.18-53.86 75.42-54.61Q74.66-55.37 74.66-56.45L74.66-56.45Q74.66-57.46 75.42-58.21Q76.18-58.97 77.18-58.97L77.18-58.97L106.13-58.97Q106.49-58.97 106.85-58.86Q107.21-58.75 107.50-58.54L107.50-58.54Q108.43-57.89 108.61-56.92Q108.79-55.94 108.22-55.01L108.22-55.01L97.34-39.17L113.83-39.17Q114.84-39.17 115.60-38.41Q116.35-37.66 116.35-36.58Z"></path></svg></g></g><mask id="017cbe3c-e6e8-4787-88a9-453c36bf1298"><g fill="white"><svg viewBox="0 0 100 100" xmlns="http://www.w3.org/2000/svg" style="overflow: visible;" width="60" height="60" x="0" y="0" filtersec="colorsf4730103104"><g transform="scale(1, 1) skewX(0)"><rect x="537" y="3121" width="100" height="100" rx="30" transform="translate(-537 -3121)" fill-rule="evenodd"></rect></g><defs></defs></svg></g> <g fill="black"><svg xmlns="http://www.w3.org/2000/svg" xmlns:xlink="http://www.w3.org/1999/xlink" viewBox="0 0 112.30396875000002 66.816" width="45" height="45" x="7.5" y="7.5" class="image-svg-letter"><path transform="translate(-4.04803125 61.056000000000004)" d="M51.12-49.18L41.54-49.18L41.54-43.70Q41.54-42.62 40.79-41.90Q40.03-41.18 39.02-41.18L39.02-41.18Q37.94-41.18 37.19-41.90Q36.43-42.62 36.43-43.70L36.43-43.70L36.43-49.18L22.61-49.18L22.61-43.70Q22.61-42.62 21.85-41.90Q21.10-41.18 20.09-41.18L20.09-41.18Q19.01-41.18 18.25-41.90Q17.50-42.62 17.50-43.70L17.50-43.70L17.50-49.18L8.06-49.18Q7.06-49.18 6.30-49.97Q5.54-50.76 5.54-51.77L5.54-51.77Q5.54-52.85 6.30-53.60Q7.06-54.36 8.06-54.36L8.06-54.36L17.50-54.36L17.50-58.54Q17.50-59.54 18.25-60.30Q19.01-61.06 20.09-61.06L20.09-61.06Q21.10-61.06 21.85-60.30Q22.61-59.54 22.61-58.54L22.61-58.54L22.61-54.36L36.43-54.36L36.43-58.54Q36.43-59.54 37.19-60.30Q37.94-61.06 39.02-61.06L39.02-61.06Q40.03-61.06 40.79-60.30Q41.54-59.54 41.54-58.54L41.54-58.54L41.54-54.36L51.12-54.36Q52.20-54.36 52.96-53.60Q53.71-52.85 53.71-51.77L53.71-51.77Q53.71-50.76 52.96-49.97Q52.20-49.18 51.12-49.18L51.12-49.18ZM19.15-4.25L19.15-4.25L19.15-34.99Q19.15-36.07 19.94-36.83Q20.74-37.58 21.74-37.58L21.74-37.58Q22.75-37.58 23.54-36.83Q24.34-36.07 24.34-34.99L24.34-34.99L24.34-4.25Q24.34-2.45 25.56-1.08L25.56-1.08Q26.78 0.22 28.58 0.22L28.58 0.22L35.35 0.22Q37.01 0.22 38.16-1.08L38.16-1.08Q39.53-2.38 39.53-4.39L39.53-4.39L39.82-10.01Q39.82-11.09 40.57-11.77Q41.33-12.46 42.41-12.46L42.41-12.46Q43.49-12.38 44.21-11.63Q44.93-10.87 44.93-9.79L44.93-9.79L44.64-4.10Q44.42-0.14 41.83 2.52L41.83 2.52Q39.17 5.33 35.35 5.33L35.35 5.33L28.58 5.33Q24.62 5.33 21.89 2.52L21.89 2.52Q19.15-0.36 19.15-4.25ZM9.00-6.41L9.00-6.41Q8.57-5.40 7.63-4.97Q6.70-4.54 5.62-4.90L5.62-4.90Q4.61-5.33 4.25-6.26Q3.89-7.20 4.18-8.21L4.18-8.21Q6.41-14.04 7.63-19.51L7.63-19.51Q8.93-25.13 9.43-30.89L9.43-30.89Q9.50-31.97 10.30-32.58Q11.09-33.19 12.17-33.12L12.17-33.12Q13.25-32.98 13.90-32.22Q14.54-31.46 14.47-30.38L14.47-30.38Q13.97-24.34 12.60-18.43L12.60-18.43Q11.38-12.46 9.00-6.41ZM49.10-31.25L49.10-31.25L54.50-7.99Q54.72-6.91 54.18-6.05Q53.64-5.18 52.56-4.97L52.56-4.97Q51.48-4.75 50.62-5.26Q49.75-5.76 49.46-6.84L49.46-6.84L44.14-30.02Q43.92-31.10 44.46-31.97Q45.00-32.83 46.08-33.12L46.08-33.12Q47.16-33.34 48.02-32.80Q48.89-32.26 49.10-31.25ZM31.90-21.89L31.90-21.89L31.90-37.37Q31.90-38.45 32.65-39.20Q33.41-39.96 34.49-39.96L34.49-39.96Q35.50-39.96 36.25-39.20Q37.01-38.45 37.01-37.37L37.01-37.37L37.01-21.89Q37.01-20.81 36.25-20.05Q35.50-19.30 34.49-19.30L34.49-19.30Q33.41-19.30 32.65-20.05Q31.90-20.81 31.90-21.89ZM116.35-36.58L116.35-36.58L116.35-25.42Q116.35-24.34 115.60-23.62Q114.84-22.90 113.83-22.90L113.83-22.90Q112.75-22.90 112.00-23.62Q111.24-24.34 111.24-25.42L111.24-25.42L111.24-34.06L94.90-34.06L94.90 3.24Q94.90 4.32 94.14 5.04Q93.38 5.76 92.38 5.76L92.38 5.76Q91.30 5.76 90.50 5.04Q89.71 4.32 89.71 3.24L89.71 3.24L89.71-34.06L69.77-34.06Q68.69-34.06 67.97-34.81Q67.25-35.57 67.25-36.58L67.25-36.58Q67.25-37.66 67.97-38.41Q68.69-39.17 69.77-39.17L69.77-39.17L87.05-39.17L80.64-46.94Q79.99-47.81 80.10-48.82Q80.21-49.82 81.00-50.54L81.00-50.54Q81.86-51.26 82.84-51.12Q83.81-50.98 84.53-50.18L84.53-50.18L92.30-40.82L101.23-53.86L77.18-53.86Q76.18-53.86 75.42-54.61Q74.66-55.37 74.66-56.45L74.66-56.45Q74.66-57.46 75.42-58.21Q76.18-58.97 77.18-58.97L77.18-58.97L106.13-58.97Q106.49-58.97 106.85-58.86Q107.21-58.75 107.50-58.54L107.50-58.54Q108.43-57.89 108.61-56.92Q108.79-55.94 108.22-55.01L108.22-55.01L97.34-39.17L113.83-39.17Q114.84-39.17 115.60-38.41Q116.35-37.66 116.35-36.58Z"></path></svg></g></mask></svg>
